<svg width="21" height="20" viewBox="0 0 21 20" fill="none" xmlns="http://www.w3.org/2000/svg">
<path d="M15.6913 13.4083L16.1896 14.147L16.9283 13.6488C17.5263 13.2454 17.8253 13.0437 18.019 12.751C18.2128 12.4583 18.2816 12.1042 18.4192 11.3962L19.9849 3.34122C20.1251 2.6205 20.1951 2.26017 20.0407 1.98C20.0152 1.93368 19.9856 1.88975 19.9522 1.84875C19.7502 1.60069 19.3899 1.53062 18.6692 1.39054C17.9485 1.25046 17.5881 1.18042 17.308 1.33475C17.2616 1.36029 17.2177 1.38989 17.1767 1.4233C16.9286 1.62524 16.8586 1.98557 16.7185 2.70629L15.1528 10.7612C15.0151 11.4693 14.9463 11.8234 15.0163 12.1673C15.0863 12.5113 15.288 12.8103 15.6913 13.4083Z" fill="#1A1A1A" stroke="#1A1A1A" stroke-width="0.9" stroke-linecap="round" stroke-linejoin="round"/>
<path d="M16.823 3.02899L19.336 3.52385" stroke="#1A1A1A" stroke-width="0.9" stroke-linecap="round" stroke-linejoin="round"/>
<path d="M1.57141 16L5.95549 3.73408C6.30505 2.94826 6.95677 1.996 7.50745 2.00001C8.32297 2.00596 8.75065 2.82551 9.22429 3.73408C9.69793 4.64265 13.5714 16 13.5714 16M3.98715 10.1564L11.0448 10.0842" stroke="#1A1A1A" stroke-width="2.5" stroke-linecap="round" stroke-linejoin="round"/>
</svg>
