<svg width="152" height="56" viewBox="0 0 152 56" fill="none" xmlns="http://www.w3.org/2000/svg">
<path d="M147.969 1V12.3066L147.539 12.6045L133.05 22.6699C136.419 22.7324 139.341 23.3068 141.79 24.4336H141.789C144.836 25.784 147.151 27.7264 148.67 30.2803H148.671C150.229 32.7623 151 35.5688 151 38.6699C151 41.9403 150.116 44.8425 148.327 47.3369L148.328 47.3379C146.584 49.7919 143.972 51.6658 140.576 53.002L140.577 53.0029C137.208 54.3494 133.003 55 128.003 55C124.521 55 121.428 54.6603 118.736 53.9668C116.05 53.2746 113.752 52.2519 111.868 50.8789L111.86 50.874L111.853 50.8682C109.962 49.4354 108.533 47.6606 107.581 45.5518L107.574 45.5381L107.568 45.5234C106.673 43.3599 106.297 40.8738 106.405 38.0918L106.438 37.2646L107.256 37.1416L119.071 35.3691L120.276 35.1885L120.218 36.4062C120.172 37.3589 120.285 38.2548 120.55 39.1006C120.854 39.865 121.331 40.5544 121.997 41.1709C122.655 41.7796 123.512 42.2801 124.598 42.6543C125.657 43.0196 126.967 43.2158 128.547 43.2158C130.111 43.2158 131.436 42.9979 132.543 42.5879C133.681 42.1345 134.489 41.504 135.03 40.7207L135.04 40.7061L135.051 40.6924C135.621 39.9249 135.941 38.9146 135.941 37.5908C135.941 35.7194 135.353 34.3 134.23 33.2305L134.217 33.2168C133.145 32.1546 131.273 31.3535 128.409 30.9551L128.406 30.9541C125.621 30.5599 121.879 30.6028 117.149 31.1123L116.043 31.2324V22.2715L116.479 21.9736L129.175 13.3232H108.97V1H147.969ZM21.4014 10.3828C24.4786 10.3828 27.1811 10.8276 29.4834 11.749H29.4824C31.7473 12.6146 33.6024 13.8412 35.0078 15.4502C36.4451 17.0082 37.4375 18.818 37.9766 20.8662C38.508 22.8854 38.638 24.985 38.375 27.1572L38.2812 27.9365L37.501 28.0303L28.2363 29.1396L27.0625 29.2793L27.1182 28.0996C27.1959 26.4421 26.9784 25.0785 26.5117 23.9756L26.5068 23.9629L26.502 23.9492C26.0755 22.8575 25.4166 22.0437 24.5264 21.4668L24.5107 21.457C23.6818 20.8984 22.5653 20.5801 21.0898 20.5801C19.856 20.5801 18.7894 20.8195 17.8682 21.2754C16.9991 21.7257 16.2317 22.407 15.5713 23.3506C14.9522 24.294 14.4561 25.5076 14.1045 27.0176L14.1035 27.0225C13.7532 28.4885 13.5713 30.236 13.5713 32.2754C13.5713 34.9061 13.8928 37.1566 14.5137 39.0439C15.1276 40.8694 16.0474 42.2383 17.2432 43.208C18.401 44.1065 19.8877 44.5879 21.7744 44.5879C23.5398 44.5879 24.7834 44.188 25.627 43.5127L25.6406 43.501C26.5741 42.7814 27.2526 41.777 27.6562 40.4316C28.0695 39.0541 28.2105 37.4791 28.0537 35.6914L27.9502 34.5078L29.1338 34.6074L38.6475 35.4082L39.4834 35.4785L39.5596 36.3135C39.7768 38.6817 39.604 40.9748 39.0352 43.1865L39.0342 43.1855C38.4995 45.385 37.4988 47.368 36.0371 49.124L36.0361 49.123C34.5891 50.9113 32.6444 52.295 30.2412 53.291L30.2402 53.29C27.8451 54.2998 24.9496 54.7842 21.5879 54.7842C18.0029 54.7842 14.8715 54.2133 12.2256 53.0332C9.6043 51.864 7.44055 50.2287 5.75781 48.1221C4.09942 46.0459 2.88016 43.6904 2.09863 41.0654L2.0957 41.0566L2.09375 41.0469C1.36332 38.4067 1.00001 35.6255 1 32.707C1 29.704 1.38405 26.8574 2.1582 24.1719C2.93722 21.4696 4.13452 19.0893 5.75684 17.0469L5.75781 17.0449C7.43782 14.9417 9.57817 13.3069 12.1582 12.1367C14.7649 10.9545 17.8566 10.3828 21.4014 10.3828ZM80.8604 11.2461V36.4043C80.8604 38.4072 81.1582 39.9211 81.6855 41.0078C82.23 42.0869 82.9209 42.798 83.7363 43.2188C84.6555 43.6717 85.7195 43.9092 86.9492 43.9092C88.2319 43.9091 89.2912 43.6669 90.1592 43.2197L90.167 43.2158L90.1738 43.2129C91.0299 42.7886 91.735 42.077 92.2744 41.0078C92.7976 39.9707 93.0996 38.4618 93.0996 36.4043V11.2461H105.174V36.8975C105.174 42.4215 103.669 46.8521 100.535 50.0469C97.3841 53.2591 92.7949 54.7841 86.9492 54.7842C84.5126 54.7842 82.303 54.5089 80.3311 53.9443C78.371 53.3831 76.6456 52.5766 75.1709 51.5137L75.1592 51.5059C73.7427 50.4529 72.5444 49.1991 71.5684 47.748L71.5488 47.7188C70.6213 46.2304 69.9208 44.5756 69.4414 42.7617L69.4385 42.751L69.4355 42.7393C69.0004 40.9278 68.7861 38.9789 68.7861 36.8975V11.2461H80.8604ZM53.1729 11.2461V43.417H68.7812V53.9219H41.0996V11.2461H53.1729Z" fill="#1A1A1A" stroke="#1A1A1A" stroke-width="2"/>
</svg>
