<svg width="26" height="25" viewBox="0 0 26 25" fill="none" xmlns="http://www.w3.org/2000/svg">
<path d="M13.5714 10.8333L13.117 18.1243C13.0008 19.9871 12.9428 20.9185 12.472 21.5882C12.2392 21.9192 11.9395 22.1986 11.5919 22.4086C10.889 22.8333 9.94801 22.8333 8.06606 22.8333C6.1817 22.8333 5.2395 22.8333 4.53605 22.4078C4.18826 22.1975 3.88848 21.9175 3.65578 21.5859C3.18512 20.9152 3.12834 19.9825 3.01479 18.1171L2.57141 10.8333" stroke="#1A1A1A" stroke-width="1.5" stroke-linecap="round"/>
<path d="M1.59747 10.6524L14.7532 5.86411M11.1395 7.17937L10.2278 6.22666C9.62208 5.59382 9.3192 5.27741 8.94784 5.14649C8.8655 5.11744 8.78146 5.09552 8.69661 5.08094C8.3142 5.01517 7.93429 5.15344 7.17447 5.42999C6.39558 5.71349 6.00618 5.85522 5.75299 6.16092C5.69689 6.22868 5.64638 6.30169 5.60202 6.3792C5.40183 6.72892 5.38244 7.17824 5.34366 8.07688L5.29051 9.30823" stroke="#1A1A1A" stroke-width="1.5" stroke-linecap="round"/>
<path d="M6.57141 18.8333V13.8333" stroke="#1A1A1A" stroke-width="1.5" stroke-linecap="round"/>
<path d="M9.57141 18.8333V13.8333" stroke="#1A1A1A" stroke-width="1.5" stroke-linecap="round"/>
<path d="M21.1505 19.6725C21.1505 20.5728 21.1505 21.0229 21.3798 21.3385C21.4538 21.4404 21.5434 21.53 21.6453 21.6041C21.9609 21.8333 22.411 21.8333 23.3113 21.8333C24.2115 21.8333 24.6617 21.8333 24.9772 21.6041C25.0791 21.53 25.1688 21.4404 25.2428 21.3385C25.4721 21.0229 25.4721 20.5728 25.4721 19.6725C25.4721 18.7723 25.4721 18.3222 25.2428 18.0066C25.1688 17.9047 25.0791 17.8151 24.9772 17.741C24.6617 17.5118 24.2115 17.5118 23.3113 17.5118C22.411 17.5118 21.9609 17.5118 21.6453 17.741C21.5434 17.8151 21.4538 17.9047 21.3798 18.0066C21.1505 18.3222 21.1505 18.7723 21.1505 19.6725Z" fill="#1A1A1A"/>
<path d="M15.748 19.6725C15.748 20.5728 15.748 21.0229 15.9773 21.3385C16.0513 21.4404 16.141 21.53 16.2429 21.6041C16.5584 21.8333 17.0086 21.8333 17.9088 21.8333C18.8091 21.8333 19.2592 21.8333 19.5748 21.6041C19.6767 21.53 19.7663 21.4404 19.8403 21.3385C20.0696 21.0229 20.0696 20.5728 20.0696 19.6725C20.0696 18.7723 20.0696 18.3222 19.8403 18.0066C19.7663 17.9047 19.6767 17.8151 19.5748 17.741C19.2592 17.5118 18.8091 17.5118 17.9088 17.5118C17.0086 17.5118 16.5584 17.5118 16.2429 17.741C16.141 17.8151 16.0513 17.9047 15.9773 18.0066C15.748 18.3222 15.748 18.7723 15.748 19.6725Z" fill="#1A1A1A"/>
<path d="M21.6361 13.785C21.6361 14.6853 21.6361 15.1354 21.8654 15.451C21.9394 15.5529 22.029 15.6425 22.1309 15.7165C22.4465 15.9458 22.8966 15.9458 23.7969 15.9458C24.6971 15.9458 25.1473 15.9458 25.4628 15.7165C25.5647 15.6425 25.6544 15.5529 25.7284 15.451C25.9577 15.1354 25.9577 14.6853 25.9577 13.785C25.9577 12.8848 25.9577 12.4347 25.7284 12.1191C25.6544 12.0172 25.5647 11.9276 25.4628 11.8535C25.1473 11.6243 24.6971 11.6243 23.7969 11.6243C22.8966 11.6243 22.4465 11.6243 22.1309 11.8535C22.029 11.9276 21.9394 12.0172 21.8654 12.1191C21.6361 12.4347 21.6361 12.8848 21.6361 13.785Z" fill="#1A1A1A"/>
<path d="M16.0375 12.7046C15.5874 13.4842 15.3623 13.8741 15.4031 14.262C15.4163 14.3872 15.4491 14.5097 15.5003 14.6247C15.659 14.9811 16.0488 15.2061 16.8284 15.6563C17.6081 16.1064 17.9979 16.3314 18.3858 16.2907C18.5111 16.2775 18.6335 16.2447 18.7486 16.1935C19.1049 16.0348 19.33 15.645 19.7801 14.8654C20.2302 14.0857 20.4553 13.6959 20.4145 13.308C20.4014 13.1827 20.3686 13.0603 20.3173 12.9452C20.1587 12.5889 19.7689 12.3638 18.9892 11.9137C18.2096 11.4636 17.8197 11.2385 17.4318 11.2793C17.3066 11.2924 17.1841 11.3253 17.0691 11.3765C16.7127 11.5351 16.4877 11.925 16.0375 12.7046Z" fill="#1A1A1A"/>
</svg>
