<svg width="308" height="231" viewBox="0 0 308 231" fill="none" xmlns="http://www.w3.org/2000/svg">
<g filter="url(#filter0_dii_1_1151)">
<path d="M7.22306 11.4011L5.22496 46.8966L12.2183 51.8958L5.22496 52.8957C2.22733 83.8917 5.52468 198.483 6.72354 202.883C8.22211 208.382 12.2178 211.881 19.2112 210.382C19.7107 215.881 22.4086 219.38 29.2022 219.38L277.965 220.38C283.46 220.38 287.956 216.881 287.956 211.381C293.95 212.381 300.044 210.682 300.444 201.883L303.941 100.89L298.946 102.889C298.446 98.3898 300.943 94.8903 303.941 93.8905C304.44 64.3941 301.643 19.3998 300.444 13.4006C299.645 9.40114 296.947 3.83037 290.454 2.90185C276.467 0.901806 97.6371 -1.59745 17.2136 2.90216C10.0204 2.90216 7.55608 8.5681 7.22306 11.4011Z" fill="#E5E5E5"/>
</g>
<defs>
<filter id="filter0_dii_1_1151" x="0" y="-3.61969" width="308" height="234" filterUnits="userSpaceOnUse" color-interpolation-filters="sRGB">
<feFlood flood-opacity="0" result="BackgroundImageFix"/>
<feColorMatrix in="SourceAlpha" type="matrix" values="0 0 0 0 0 0 0 0 0 0 0 0 0 0 0 0 0 0 127 0" result="hardAlpha"/>
<feOffset dy="6"/>
<feGaussianBlur stdDeviation="2"/>
<feComposite in2="hardAlpha" operator="out"/>
<feColorMatrix type="matrix" values="0 0 0 0 0.117647 0 0 0 0 0.117647 0 0 0 0 0.117647 0 0 0 0.14 0"/>
<feBlend mode="normal" in2="BackgroundImageFix" result="effect1_dropShadow_1_1151"/>
<feBlend mode="normal" in="SourceGraphic" in2="effect1_dropShadow_1_1151" result="shape"/>
<feColorMatrix in="SourceAlpha" type="matrix" values="0 0 0 0 0 0 0 0 0 0 0 0 0 0 0 0 0 0 127 0" result="hardAlpha"/>
<feOffset dx="4" dy="-4"/>
<feGaussianBlur stdDeviation="3"/>
<feComposite in2="hardAlpha" operator="arithmetic" k2="-1" k3="1"/>
<feColorMatrix type="matrix" values="0 0 0 0 0.724434 0 0 0 0 0.724434 0 0 0 0 0.724434 0 0 0 1 0"/>
<feBlend mode="normal" in2="shape" result="effect2_innerShadow_1_1151"/>
<feColorMatrix in="SourceAlpha" type="matrix" values="0 0 0 0 0 0 0 0 0 0 0 0 0 0 0 0 0 0 127 0" result="hardAlpha"/>
<feOffset dx="-4" dy="4"/>
<feGaussianBlur stdDeviation="3"/>
<feComposite in2="hardAlpha" operator="arithmetic" k2="-1" k3="1"/>
<feColorMatrix type="matrix" values="0 0 0 0 0.985877 0 0 0 0 0.966145 0 0 0 0 0.911859 0 0 0 1 0"/>
<feBlend mode="normal" in2="effect2_innerShadow_1_1151" result="effect3_innerShadow_1_1151"/>
</filter>
</defs>
</svg>
