<svg width="24" height="24" viewBox="0 0 24 24" fill="none" xmlns="http://www.w3.org/2000/svg">
<path d="M7 9.5C7 10.8807 5.88071 12 4.5 12C3.11929 12 2 10.8807 2 9.5C2 8.11929 3.11929 7 4.5 7C5.88071 7 7 8.11929 7 9.5ZM7 9.5V2C7.33333 2.5 7.6 4.6 10 5" stroke="#1A1A1A" stroke-width="1.5" stroke-linecap="round" stroke-linejoin="round"/>
<path d="M10.5 22C11.8807 22 13 20.8807 13 19.5C13 18.1193 11.8807 17 10.5 17C9.11929 17 8 18.1193 8 19.5C8 20.8807 9.11929 22 10.5 22Z" stroke="#1A1A1A" stroke-width="1.5"/>
<path d="M20 20C21.1046 20 22 19.1046 22 18C22 16.8954 21.1046 16 20 16C18.8954 16 18 16.8954 18 18C18 19.1046 18.8954 20 20 20Z" stroke="#1A1A1A" stroke-width="1.5"/>
<path d="M13 19.5V11C13 10.09 13 9.63502 13.2466 9.35248C13.4932 9.06993 13.9938 9.00163 14.9949 8.86504C18.0085 8.45385 20.2013 7.19797 21.3696 6.42937C21.6498 6.24509 21.7898 6.15295 21.8949 6.20961C22 6.26627 22 6.43179 22 6.76283V17.9259" stroke="#1A1A1A" stroke-width="1.5" stroke-linecap="round" stroke-linejoin="round"/>
<path d="M13 13C17.8 13 21 10.6667 22 10" stroke="#1A1A1A" stroke-width="1.5" stroke-linecap="round" stroke-linejoin="round"/>
<path d="M22 22L2 2" stroke="#1A1A1A" stroke-width="1.5" stroke-linecap="round" stroke-linejoin="round"/>
</svg>
