<svg width="25" height="24" viewBox="0 0 25 24" fill="none" xmlns="http://www.w3.org/2000/svg">
<path d="M7.5 9.5C7.5 10.8807 6.38071 12 5 12C3.61929 12 2.5 10.8807 2.5 9.5C2.5 8.11929 3.61929 7 5 7C6.38071 7 7.5 8.11929 7.5 9.5ZM7.5 9.5V2C7.83333 2.5 8.1 4.6 10.5 5" stroke="#EF9817" stroke-width="1.5" stroke-linecap="round" stroke-linejoin="round"/>
<path d="M11 22C12.3807 22 13.5 20.8807 13.5 19.5C13.5 18.1193 12.3807 17 11 17C9.61929 17 8.5 18.1193 8.5 19.5C8.5 20.8807 9.61929 22 11 22Z" stroke="#EF9817" stroke-width="1.5"/>
<path d="M20.5 20C21.6046 20 22.5 19.1046 22.5 18C22.5 16.8954 21.6046 16 20.5 16C19.3954 16 18.5 16.8954 18.5 18C18.5 19.1046 19.3954 20 20.5 20Z" stroke="#EF9817" stroke-width="1.5"/>
<path d="M13.5 19.5V11C13.5 10.09 13.5 9.635 13.7466 9.35246C13.9932 9.06991 14.4938 9.00161 15.4949 8.86502C18.5085 8.45383 20.7013 7.19795 21.8696 6.42935C22.1498 6.24507 22.2898 6.15293 22.3949 6.20959C22.5 6.26625 22.5 6.43177 22.5 6.76281V17.9259" stroke="#EF9817" stroke-width="1.5" stroke-linecap="round" stroke-linejoin="round"/>
<path d="M13.5 13C18.3 13 21.5 10.6667 22.5 10" stroke="#EF9817" stroke-width="1.5" stroke-linecap="round" stroke-linejoin="round"/>
</svg>
