<svg width="25" height="25" viewBox="0 0 25 25" fill="none" xmlns="http://www.w3.org/2000/svg">
<path d="M20.129 4.66669L21.0265 5.64243C21.4275 6.07834 21.628 6.2963 21.5575 6.4815C21.4869 6.66669 21.2034 6.66669 20.6363 6.66669C19.367 6.66669 17.8485 6.46162 16.6825 7.13999C15.9617 7.55941 15.4597 8.29186 14.6106 9.66669M3.57141 18.6667H5.15223C7.08014 18.6667 8.0441 18.6667 8.85761 18.1934C9.57849 17.774 10.0805 17.0415 10.9296 15.6667" stroke="#1A1A1A" stroke-width="1.5" stroke-linecap="round" stroke-linejoin="round"/>
<path d="M20.129 20.6667L21.0265 19.691C21.4275 19.255 21.628 19.0371 21.5575 18.8519C21.4869 18.6667 21.2034 18.6667 20.6363 18.6667C19.367 18.6667 17.8485 18.8718 16.6825 18.1934C15.869 17.7201 15.3343 16.8482 14.2649 15.1043L11.2752 10.2291C10.2058 8.48522 9.67111 7.61329 8.85761 7.13999C8.0441 6.66669 7.08014 6.66669 5.15223 6.66669H3.57141" stroke="#1A1A1A" stroke-width="1.5" stroke-linecap="round" stroke-linejoin="round"/>
</svg>
