<svg width="14" height="14" viewBox="0 0 14 14" fill="none" xmlns="http://www.w3.org/2000/svg">
<path d="M8.20931 1.01092L9.44117 3.49501C9.60917 3.84081 10.0571 4.17249 10.4351 4.236L12.6678 4.61002C14.0957 4.84997 14.4317 5.89442 13.4028 6.92475L11.667 8.67489C11.373 8.97127 11.212 9.54289 11.303 9.95225L11.8 12.1187C12.1919 13.8336 11.289 14.497 9.78417 13.6007L7.69138 12.3516C7.31346 12.1258 6.69053 12.1258 6.30553 12.3516L4.21279 13.6007C2.71495 14.497 1.80505 13.8265 2.19701 12.1187L2.69395 9.95225C2.78494 9.54289 2.62396 8.97127 2.32999 8.67489L0.594187 6.92475C-0.4277 5.89442 -0.0987353 4.84997 1.3291 4.61002L3.56186 4.236C3.93281 4.17249 4.38076 3.84081 4.54874 3.49501L5.7806 1.01092C6.45253 -0.336975 7.54438 -0.336975 8.20931 1.01092Z" fill="#FFB547"/>
</svg>
