<svg width="308" height="184" viewBox="0 0 308 184" fill="none" xmlns="http://www.w3.org/2000/svg">
<g filter="url(#filter0_dii_64_751)">
<path d="M7.22306 11.9011L5.22496 47.3966L12.2183 52.3958L5.22496 53.3957C2.22733 84.3917 5.52468 151.983 6.72354 156.383C8.22211 161.882 12.2178 165.381 19.2112 163.882C19.7107 169.381 22.4086 172.88 29.2022 172.88L277.965 173.88C283.46 173.88 287.956 170.381 287.956 164.881C293.95 165.881 300.044 164.182 300.444 155.383L303.941 101.39L298.946 103.389C298.446 98.8898 300.943 95.3903 303.941 94.3905C304.44 64.8941 301.643 19.8998 300.444 13.9006C299.645 9.90114 296.947 4.33037 290.454 3.40185C276.467 1.40181 97.6371 -1.09745 17.2136 3.40216C10.0204 3.40216 7.55608 9.0681 7.22306 11.9011Z" fill="#E5E5E5"/>
</g>
<defs>
<filter id="filter0_dii_64_751" x="0" y="-3.11969" width="308" height="187" filterUnits="userSpaceOnUse" color-interpolation-filters="sRGB">
<feFlood flood-opacity="0" result="BackgroundImageFix"/>
<feColorMatrix in="SourceAlpha" type="matrix" values="0 0 0 0 0 0 0 0 0 0 0 0 0 0 0 0 0 0 127 0" result="hardAlpha"/>
<feOffset dy="6"/>
<feGaussianBlur stdDeviation="2"/>
<feComposite in2="hardAlpha" operator="out"/>
<feColorMatrix type="matrix" values="0 0 0 0 0.117647 0 0 0 0 0.117647 0 0 0 0 0.117647 0 0 0 0.14 0"/>
<feBlend mode="normal" in2="BackgroundImageFix" result="effect1_dropShadow_64_751"/>
<feBlend mode="normal" in="SourceGraphic" in2="effect1_dropShadow_64_751" result="shape"/>
<feColorMatrix in="SourceAlpha" type="matrix" values="0 0 0 0 0 0 0 0 0 0 0 0 0 0 0 0 0 0 127 0" result="hardAlpha"/>
<feOffset dx="4" dy="-4"/>
<feGaussianBlur stdDeviation="3"/>
<feComposite in2="hardAlpha" operator="arithmetic" k2="-1" k3="1"/>
<feColorMatrix type="matrix" values="0 0 0 0 0.724434 0 0 0 0 0.724434 0 0 0 0 0.724434 0 0 0 1 0"/>
<feBlend mode="normal" in2="shape" result="effect2_innerShadow_64_751"/>
<feColorMatrix in="SourceAlpha" type="matrix" values="0 0 0 0 0 0 0 0 0 0 0 0 0 0 0 0 0 0 127 0" result="hardAlpha"/>
<feOffset dx="-4" dy="4"/>
<feGaussianBlur stdDeviation="3"/>
<feComposite in2="hardAlpha" operator="arithmetic" k2="-1" k3="1"/>
<feColorMatrix type="matrix" values="0 0 0 0 0.985877 0 0 0 0 0.966145 0 0 0 0 0.911859 0 0 0 1 0"/>
<feBlend mode="normal" in2="effect2_innerShadow_64_751" result="effect3_innerShadow_64_751"/>
</filter>
</defs>
</svg>
